# xmcd
#
# Track frame offsets:
#	150
#	20195
#	40660
#	60262
#	79847
#	101065
#	121180
#	142827
#	162127
#	181540
#	200877
#	221695
#	242107
#	256597
#	272780
#	290490
#
# Disc length: 4203 seconds
#
# Revision: 9
# Processed by: cddbd v1.5.2PL0 Copyright (c) Steve Scherf et al.
# Submitted via: EasyCDDAExtractor 15.3.0.1
#
DISCID=dd106910
DTITLE=Cristian - Grandes Hits
DYEAR=2002
DGENRE=Latin
TTITLE0=Lloran Las Rosas
TTITLE1=Por Amarte Asi
TTITLE2=Cuando Me Miras Asi
TTITLE3=Azul
TTITLE4=Volver A Amar
TTITLE5=Escondidos (Dueto Con Olga Tañon)
TTITLE6=Miedo
TTITLE7=Yo Queria
TTITLE8=Pasion (Dueto Con Grupo Limite)
TTITLE9=Lloviendo Estrellas
TTITLE10=Veronica
TTITLE11=Soledad
TTITLE12=Ella (Dueto Con Jose Alfredo Jimenez)
TTITLE13=Mi Vida Sin Tu Amor
TTITLE14=Lo Mejor De Mi
TTITLE15=Despues De Ti... Que (Participacion Especial De Raul Di Blasio)
EXTD=Cristian Castro Grandes Exitos
EXTT0=
EXTT1=
EXTT2=
EXTT3=
EXTT4=
EXTT5=
EXTT6=
EXTT7=
EXTT8=
EXTT9=
EXTT10=
EXTT11=
EXTT12=
EXTT13=
EXTT14=
EXTT15=
PLAYORDER=
